<svg id="Layer_1" data-name="Layer 1" xmlns="http://www.w3.org/2000/svg" xmlns:xlink="http://www.w3.org/1999/xlink" viewBox="0 0 859.89 613.28"><defs><style>.cls-1,.cls-5{fill:none;}.cls-2{clip-path:url(#clip-path);}.cls-3{fill:#005721;}.cls-4{fill:#006624;}.cls-5{stroke:#c3a135;stroke-miterlimit:22.93;stroke-width:2.3px;}.cls-6{fill:#c3a135;}.cls-6,.cls-7{fill-rule:evenodd;}.cls-7{fill:#fff;}</style><clipPath id="clip-path"><rect class="cls-1" x="-9" y="8.28" width="860" height="614"/></clipPath></defs><g class="cls-2"><polygon class="cls-3" points="274.49 395.88 220.1 395.88 148.44 321.26 148.44 321.37 148.44 395.88 91.99 395.88 91.99 241.24 147.6 241.24 217.56 316.24 217.56 241.24 274.49 241.24 274.49 395.88"/><path class="cls-4" d="M667.62,288.37a7.22,7.22,0,0,0,5.32-2,7,7,0,0,0,2-5.25,7.31,7.31,0,0,0-2-5.39,7.16,7.16,0,0,0-5.32-2h-8.25c-.27,0-.4.14-.4.43v13.84c0,.29.13.44.4.44Zm2.16-27.15a18.84,18.84,0,0,1,9.65,2.45,16.64,16.64,0,0,1,6.49,6.88,22,22,0,0,1,2.28,10.2,20.94,20.94,0,0,1-2.36,10.07,16.4,16.4,0,0,1-6.69,6.74,20.49,20.49,0,0,1-10,2.37h-9.77c-.27,0-.4.14-.4.44v21.1a1.08,1.08,0,0,1-.28.75.9.9,0,0,1-.68.3H646.64a.9.9,0,0,1-.68-.3,1.08,1.08,0,0,1-.28-.75v-59.2a1,1,0,0,1,.28-.74.87.87,0,0,1,.68-.31Z"/><path class="cls-4" d="M714.39,323.22a22.64,22.64,0,0,1-11.26-2.71,18.87,18.87,0,0,1-7.52-7.71,24,24,0,0,1-2.69-11.56V282.33a23.6,23.6,0,0,1,2.69-11.43,19,19,0,0,1,7.52-7.67,22.64,22.64,0,0,1,11.26-2.71,23.58,23.58,0,0,1,11.25,2.58,18.54,18.54,0,0,1,7.52,7.27,21.39,21.39,0,0,1,2.69,10.82,1,1,0,0,1-.28.7,1,1,0,0,1-.68.26l-11.38.79a.85.85,0,0,1-1-1,9.32,9.32,0,0,0-2.24-6.57,8.34,8.34,0,0,0-11.85,0,9.37,9.37,0,0,0-2.24,6.53v19.87a9.23,9.23,0,0,0,2.24,6.49,8.39,8.39,0,0,0,11.85,0,9.23,9.23,0,0,0,2.24-6.49.85.85,0,0,1,1-1l11.38.61a1,1,0,0,1,.68.27.83.83,0,0,1,.28.61,21.81,21.81,0,0,1-2.69,10.95,18.39,18.39,0,0,1-7.52,7.31,23.58,23.58,0,0,1-11.25,2.58"/><path class="cls-4" d="M764.84,310a7.06,7.06,0,0,0,5-1.62,6.06,6.06,0,0,0,1.76-4.69,6,6,0,0,0-1.72-4.59,7,7,0,0,0-5-1.62h-8.57c-.27,0-.4.14-.4.43v11.65c0,.29.13.44.4.44Zm-8.57-36.34c-.27,0-.4.14-.4.43v11c0,.29.13.44.4.44h7.92a7.44,7.44,0,0,0,5-1.54A5.44,5.44,0,0,0,771,279.7a5.7,5.7,0,0,0-1.76-4.47,7.34,7.34,0,0,0-5-1.57Zm21.3,17c-.32.18-.32.36,0,.53q7.29,4.2,7.28,14,0,8.76-5.52,13.05t-14.49,4.29H743.53a.91.91,0,0,1-.68-.3,1.12,1.12,0,0,1-.28-.75v-59.2a1.08,1.08,0,0,1,.28-.74.89.89,0,0,1,.68-.31h20.66q9.78,0,14.78,4t5,13.05Q784,286.88,777.57,290.64Z"/><path class="cls-4" d="M347.48,263a1.08,1.08,0,0,1,.28-.74.87.87,0,0,1,.68-.31h11.25a.87.87,0,0,1,.68.31,1.07,1.07,0,0,1,.27.74v59.2a1.11,1.11,0,0,1-.27.75.9.9,0,0,1-.68.3H348.91a1.12,1.12,0,0,1-1.11-.7l-18.23-33.45c-.11-.18-.21-.25-.32-.22s-.16.16-.16.39l.08,32.93a1.11,1.11,0,0,1-.27.75.9.9,0,0,1-.68.3H317a.9.9,0,0,1-.68-.3,1.12,1.12,0,0,1-.28-.75V263a1.08,1.08,0,0,1,.28-.74A.87.87,0,0,1,317,262h10.86a1.13,1.13,0,0,1,1.11.7L347.09,296c.1.17.21.24.32.22s.15-.17.15-.4Z"/><path class="cls-4" d="M386.49,289.73c-2.75,0-4.58,1.43-5.47,4.29a7.72,7.72,0,0,0-.4,1.84c-.11.29,0,.44.32.44h11.25c.21,0,.32-.12.32-.35a6.34,6.34,0,0,0-.32-1.75,5.46,5.46,0,0,0-5.7-4.47m19.42,6.92a38.82,38.82,0,0,1,.23,6.92c-.05.7-.39,1.05-1,1.05H380.94a.49.49,0,0,0-.32.13.24.24,0,0,0-.08.31,13.32,13.32,0,0,0,.79,2.54,7.47,7.47,0,0,0,2.86,3,8.93,8.93,0,0,0,4.67,1.14,9.46,9.46,0,0,0,7.85-3.59.9.9,0,0,1,.72-.44.74.74,0,0,1,.63.35l6.1,7.71a.88.88,0,0,1,.32.7,1.06,1.06,0,0,1-.32.7,18.06,18.06,0,0,1-6.85,5.08,22.39,22.39,0,0,1-8.92,1.75,21.09,21.09,0,0,1-12.25-3.46,19.21,19.21,0,0,1-7.25-9.67,31.06,31.06,0,0,1-1.67-10.95,30.33,30.33,0,0,1,1.27-8.76,20.51,20.51,0,0,1,6.78-10.2,17.55,17.55,0,0,1,11.22-3.72,17.74,17.74,0,0,1,9.35,2.49,19.27,19.27,0,0,1,6.7,6.92A27.29,27.29,0,0,1,405.91,296.65Z"/><path class="cls-4" d="M436.82,288.59a1.11,1.11,0,0,1-.27.75.9.9,0,0,1-.68.3h-7.21c-.27,0-.4.15-.4.44V306q0,5,3.65,5h2.93a.84.84,0,0,1,.67.31,1,1,0,0,1,.28.74v10.16a1,1,0,0,1-1,1.14c-2.54.12-4.39.17-5.55.17q-6.9,0-10.22-2.4T415.66,312V290.08c0-.29-.13-.44-.4-.44h-4.52a.87.87,0,0,1-.67-.3,1.08,1.08,0,0,1-.28-.75v-9.54a1.08,1.08,0,0,1,.28-.75.87.87,0,0,1,.67-.3h4.52c.27,0,.4-.15.4-.44V267a1.07,1.07,0,0,1,.27-.74.87.87,0,0,1,.68-.31h10.7a.85.85,0,0,1,.67.31,1,1,0,0,1,.28.74v10.6c0,.29.13.44.4.44h7.21a.9.9,0,0,1,.68.3,1.11,1.11,0,0,1,.27.75Z"/><path class="cls-4" d="M452.84,323.27a1,1,0,0,1-1-.87l-11.49-43.27-.08-.35a.77.77,0,0,1,.87-.87h11.66a1,1,0,0,1,1,1l4.75,23.73c.06.24.13.35.24.35s.19-.11.24-.35l5.15-23.82a1,1,0,0,1,1-.87h10.15a1.06,1.06,0,0,1,1.11.87l5.39,23.91c0,.18.13.26.24.26s.18-.08.23-.26l5.32-23.91a1,1,0,0,1,1.11-.87l11.57.17a.74.74,0,0,1,.67.31,1.2,1.2,0,0,1,.12.83L489.46,322.4a1,1,0,0,1-1,.87H476.78a1,1,0,0,1-1.11-.87L470.43,302c-.05-.17-.13-.26-.23-.26s-.19.09-.24.26l-4.44,20.41a1,1,0,0,1-1,.87Z"/><path class="cls-4" d="M524.81,311.54a5,5,0,0,0,3.81-1.62,10.1,10.1,0,0,0,2.22-4.43,24.89,24.89,0,0,0,.47-5,23,23,0,0,0-.55-5.08,8.45,8.45,0,0,0-2.14-4.2,5.21,5.21,0,0,0-3.81-1.49q-4.59,0-6,5.69a23.18,23.18,0,0,0-.48,5.08,24.15,24.15,0,0,0,.48,5,9.2,9.2,0,0,0,2.18,4.43,5.09,5.09,0,0,0,3.84,1.62m0,12.43a18.23,18.23,0,0,1-12.13-4.2A20.38,20.38,0,0,1,506,308.38a30.44,30.44,0,0,1-1-7.88,31.84,31.84,0,0,1,1-8.49,19.71,19.71,0,0,1,6.78-10.82,18.83,18.83,0,0,1,12-3.89,18.2,18.2,0,0,1,11.81,3.89,20.33,20.33,0,0,1,6.74,10.73,30.91,30.91,0,0,1,1.11,8.41,33.34,33.34,0,0,1-.87,7.7A20.91,20.91,0,0,1,537,319.68,18.09,18.09,0,0,1,524.81,324Z"/><path class="cls-4" d="M572.06,277.38a7.52,7.52,0,0,1,4.44,1.14,1.2,1.2,0,0,1,.47,1.32L575.15,292c0,.7-.42.9-1.11.61a11.51,11.51,0,0,0-2.7-.35,9,9,0,0,0-2.06.18,7,7,0,0,0-4.16,2.1,6.39,6.39,0,0,0-1.7,4.64v23a1.12,1.12,0,0,1-.28.75.87.87,0,0,1-.67.3H551.21a.87.87,0,0,1-.67-.3,1.08,1.08,0,0,1-.28-.75V279.05a1.08,1.08,0,0,1,.28-.75.87.87,0,0,1,.67-.3h11.26a.87.87,0,0,1,.67.3,1.12,1.12,0,0,1,.28.75v2.8a.36.36,0,0,0,.16.35c.1.06.18,0,.23-.18a9.63,9.63,0,0,1,8.25-4.64"/><path class="cls-4" d="M582.13,323.27a.9.9,0,0,1-.68-.3,1.12,1.12,0,0,1-.28-.75V263a1.08,1.08,0,0,1,.28-.74.87.87,0,0,1,.68-.31h11.25a.87.87,0,0,1,.68.31,1.07,1.07,0,0,1,.27.74v27.24c0,.17.06.27.16.3a.31.31,0,0,0,.32-.13l8.64-11.82a1.44,1.44,0,0,1,1.19-.61h12.92c.53,0,.79.2.79.61a1.6,1.6,0,0,1-.24.7l-10.38,14.8a.6.6,0,0,0,0,.61l11.81,27.33a1.32,1.32,0,0,1,.16.52c0,.47-.29.7-.87.7H607.1a1.12,1.12,0,0,1-1.11-.79l-7.22-18.65a.36.36,0,0,0-.28-.22.22.22,0,0,0-.27.13l-3.73,5.87a1.56,1.56,0,0,0-.16.53v12.08a1.11,1.11,0,0,1-.27.75.9.9,0,0,1-.68.3Z"/><path class="cls-5" d="M57,312.66h47V214.14L233.7,351.31l.75-88.25h70.21M57,327.75h54.33V230.17L239.68,366V278.28h65M57,343.16h61.24v-94.8L246.79,382.07V292.56h57.87M57,358.2h68.65V268.31L253,399.7V307.08h51.64M57,372.48h74.65v-90.2L261.37,418.51V321.75h43.29M57,387.52h82.71v-85L266.86,433.17v-96H782.27M57,298.31H98.9V198.1l128.66,137V248.78H783"/><path class="cls-6" d="M267.1,242a6.42,6.42,0,1,1-6.42,6.41A6.41,6.41,0,0,1,267.1,242"/><path class="cls-7" d="M267.1,245.77a2.62,2.62,0,1,1-2.62,2.62,2.62,2.62,0,0,1,2.62-2.62"/><path class="cls-6" d="M267.1,256.76a6.42,6.42,0,1,1-6.42,6.41,6.41,6.41,0,0,1,6.42-6.41"/><path class="cls-7" d="M267.1,260.55a2.62,2.62,0,1,1-2.62,2.62,2.62,2.62,0,0,1,2.62-2.62"/><path class="cls-6" d="M267.1,271.54a6.42,6.42,0,1,1-6.42,6.41,6.41,6.41,0,0,1,6.42-6.41"/><path class="cls-7" d="M267.1,275.33a2.62,2.62,0,1,1-2.62,2.62,2.62,2.62,0,0,1,2.62-2.62"/><path class="cls-6" d="M267.1,286.32a6.42,6.42,0,1,1-6.42,6.41,6.41,6.41,0,0,1,6.42-6.41"/><path class="cls-7" d="M267.1,290.12a2.62,2.62,0,1,1-2.62,2.61,2.61,2.61,0,0,1,2.62-2.61"/><path class="cls-6" d="M267.1,301.1a6.42,6.42,0,1,1-6.42,6.41,6.41,6.41,0,0,1,6.42-6.41"/><path class="cls-7" d="M267.1,304.9a2.62,2.62,0,1,1-2.62,2.61,2.61,2.61,0,0,1,2.62-2.61"/><path class="cls-6" d="M267.1,315.88a6.42,6.42,0,1,1-6.42,6.41,6.41,6.41,0,0,1,6.42-6.41"/><path class="cls-7" d="M267.1,319.68a2.62,2.62,0,1,1-2.62,2.61,2.61,2.61,0,0,1,2.62-2.61"/><path class="cls-6" d="M98.45,306.63A6.42,6.42,0,1,1,92,313a6.41,6.41,0,0,1,6.42-6.41"/><path class="cls-7" d="M98.45,310.43A2.62,2.62,0,1,1,95.83,313a2.62,2.62,0,0,1,2.62-2.61"/><path class="cls-6" d="M98.45,321.41A6.42,6.42,0,1,1,92,327.82a6.41,6.41,0,0,1,6.42-6.41"/><path class="cls-7" d="M98.45,325.21a2.62,2.62,0,1,1-2.62,2.61,2.62,2.62,0,0,1,2.62-2.61"/><path class="cls-6" d="M98.45,336.19A6.42,6.42,0,1,1,92,342.6a6.41,6.41,0,0,1,6.42-6.41"/><path class="cls-7" d="M98.45,340a2.62,2.62,0,1,1-2.62,2.61A2.62,2.62,0,0,1,98.45,340"/><path class="cls-6" d="M98.45,351A6.42,6.42,0,1,1,92,357.38,6.41,6.41,0,0,1,98.45,351"/><path class="cls-7" d="M98.45,354.77a2.62,2.62,0,1,1-2.62,2.61,2.62,2.62,0,0,1,2.62-2.61"/><path class="cls-6" d="M98.45,365.75A6.42,6.42,0,1,1,92,372.16a6.41,6.41,0,0,1,6.42-6.41"/><path class="cls-7" d="M98.45,369.55a2.62,2.62,0,1,1-2.62,2.61,2.62,2.62,0,0,1,2.62-2.61"/><path class="cls-6" d="M98.45,380.53A6.42,6.42,0,1,1,92,387a6.41,6.41,0,0,1,6.42-6.42"/><path class="cls-7" d="M98.45,384.33A2.62,2.62,0,1,1,95.83,387a2.62,2.62,0,0,1,2.62-2.62"/></g></svg>